<svg width="32" height="32" viewBox="0 0 32 32" fill="none" xmlns="http://www.w3.org/2000/svg">
<path d="M6.18182 4C4.98864 4 4 4.98864 4 6.18182V25.8182C4 27.0114 4.98864 28 6.18182 28H25.8182C27.0114 28 28 27.0114 28 25.8182V6.18182C28 4.98864 27.0114 4 25.8182 4H6.18182ZM6.18182 6.18182H25.8182V25.8182H20.1591V18.4545H22.9886L23.3977 15.1818H20.1591V13.0682C20.1591 12.1136 20.3935 11.4659 21.7614 11.4659H23.5341V8.5C23.2315 8.46165 22.1832 8.39773 20.9773 8.39773C18.4631 8.39773 16.75 9.91051 16.75 12.7273V15.1818H13.8864V18.4545H16.75V25.8182H6.18182V6.18182Z" fill="white"/>
</svg>
