<svg width="51" height="50" viewBox="0 0 51 50" fill="none" xmlns="http://www.w3.org/2000/svg">
<g opacity="0.15">
<path d="M25.5721 0L26.7367 20.6533L38.0721 3.34936L28.754 21.818L47.2227 12.5L29.9188 23.8353L50.5721 25L29.9188 26.1647L47.2227 37.5L28.754 28.182L38.0721 46.6506L26.7367 29.3467L25.5721 50L24.4074 29.3467L13.0721 46.6506L22.3901 28.182L3.92144 37.5L21.2254 26.1647L0.572083 25L21.2254 23.8353L3.92144 12.5L22.3901 21.818L13.0721 3.34936L24.4074 20.6533L25.5721 0Z" fill="black"/>
<path d="M25.5721 0L26.7367 20.6533L38.0721 3.34936L28.754 21.818L47.2227 12.5L29.9188 23.8353L50.5721 25L29.9188 26.1647L47.2227 37.5L28.754 28.182L38.0721 46.6506L26.7367 29.3467L25.5721 50L24.4074 29.3467L13.0721 46.6506L22.3901 28.182L3.92144 37.5L21.2254 26.1647L0.572083 25L21.2254 23.8353L3.92144 12.5L22.3901 21.818L13.0721 3.34936L24.4074 20.6533L25.5721 0Z" fill="black"/>
</g>
</svg>
